<svg width="18" height="18" fill="none" xmlns="http://www.w3.org/2000/svg"><path d="M14.625 16.313h-.096C3.476 15.677 1.907 6.35 1.688 3.504A1.688 1.688 0 0 1 3.24 1.687h3.1a1.125 1.125 0 0 1 1.046.71L8.24 4.5a1.125 1.125 0 0 1-.248 1.215l-1.198 1.21a5.27 5.27 0 0 0 4.264 4.274l1.22-1.209a1.125 1.125 0 0 1 1.221-.23l2.12.849a1.124 1.124 0 0 1 .693 1.046v2.97a1.687 1.687 0 0 1-1.688 1.688Zm-11.25-13.5a.563.563 0 0 0-.563.562v.045c.26 3.33 1.919 11.205 11.78 11.768a.562.562 0 0 0 .595-.53v-3.003l-2.12-.85-1.614 1.604-.27-.034c-4.894-.613-5.558-5.507-5.558-5.558l-.034-.27L7.19 4.934l-.844-2.12h-2.97Z" fill="#fff"/></svg>