<svg width="100" height="100" fill="none" xmlns="http://www.w3.org/2000/svg"><g fill="#114B63"><path d="M38.208 77.72c-6.142 0-11.14 4.996-11.14 11.138 0 6.144 4.998 11.142 11.14 11.142s11.14-4.998 11.14-11.142c0-6.142-4.998-11.139-11.14-11.139Zm0 15.472a4.338 4.338 0 0 1-4.331-4.334 4.336 4.336 0 0 1 4.331-4.33 4.336 4.336 0 0 1 4.332 4.33 4.338 4.338 0 0 1-4.332 4.334ZM76.326 77.72c-6.142 0-11.14 4.996-11.14 11.138 0 6.144 4.998 11.142 11.14 11.142 6.144 0 11.141-4.998 11.141-11.142 0-6.142-4.997-11.139-11.14-11.139Zm0 15.472a4.338 4.338 0 0 1-4.331-4.334 4.336 4.336 0 0 1 4.331-4.33 4.337 4.337 0 0 1 4.333 4.33 4.338 4.338 0 0 1-4.333 4.334Zm10.37-16.87 13.195-50.74H21.68l-3.808-14.645H.109v6.808h12.5L27.84 76.321h58.856Zm-21.51-29.288v7.837H49.349v-7.837h15.839Zm-15.838-6.808V32.39h15.839v7.835h-15.84Zm22.647 6.808h15.282l-2.038 7.837H71.995v-7.837Zm-6.808 14.645v7.835h-15.84V61.68h15.84ZM42.539 54.87H29.297l-2.038-7.837h15.28v7.837Zm-11.471 6.808h11.471v7.835h-9.434l-2.037-7.835Zm40.927 7.835v-7.836h11.474l-2.038 7.836h-9.436Zm17.052-29.288H71.995V32.39h19.09l-2.038 7.835ZM42.54 32.39v7.835H25.49l-2.04-7.835h19.09Z"/><path d="m54.652 14.853 7.482 7.483 4.814-4.814-7.482-7.483 4.29-4.29L44.613 0l5.748 19.143 4.29-4.29Z"/></g></svg>