<svg width="100" height="100" fill="none" xmlns="http://www.w3.org/2000/svg"><path d="M81.25 90.625h-.531C19.313 87.094 10.594 35.281 9.375 19.469A9.375 9.375 0 0 1 18 9.375h17.219a6.25 6.25 0 0 1 5.812 3.938L45.781 25a6.25 6.25 0 0 1-1.375 6.75l-6.656 6.719a29.281 29.281 0 0 0 23.688 23.75l6.78-6.719A6.249 6.249 0 0 1 75 54.219l11.781 4.718a6.251 6.251 0 0 1 3.844 5.813v16.5a9.375 9.375 0 0 1-9.375 9.375Zm-62.5-75a3.125 3.125 0 0 0-3.125 3.125V19c1.438 18.5 10.656 62.25 65.438 65.375a3.125 3.125 0 0 0 3.312-2.938V64.75l-11.781-4.719-8.969 8.907-1.5-.188C34.937 65.344 31.25 38.156 31.25 37.875l-.188-1.5 8.875-8.969-4.687-11.781h-16.5Z" fill="#114B63"/></svg>