<svg width="100" height="100" fill="none" xmlns="http://www.w3.org/2000/svg"><g fill="#114B63"><path d="M50 50H12.5v6.25H50V50ZM37.5 34.375H6.25v6.25H37.5v-6.25Z"/><path d="M93.497 51.895 84.122 30.02a3.12 3.12 0 0 0-2.872-1.895h-9.375v-6.25a3.125 3.125 0 0 0-3.125-3.125h-50V25h46.875v39.238a12.476 12.476 0 0 0-5.806 7.637H40.181a12.5 12.5 0 1 0 0 6.25h19.638a12.44 12.44 0 0 0 24.112 0h6.694A3.125 3.125 0 0 0 93.75 75V53.125c0-.423-.086-.842-.253-1.23ZM28.125 81.25a6.25 6.25 0 1 1 6.25-6.25 6.257 6.257 0 0 1-6.25 6.25Zm43.75-46.875h7.315L85.887 50H71.875V34.375Zm0 46.875a6.25 6.25 0 1 1 6.25-6.25 6.257 6.257 0 0 1-6.25 6.25ZM87.5 71.875h-3.57A12.486 12.486 0 0 0 71.876 62.5v-6.25H87.5v15.625Z"/></g></svg>