<svg width="100" height="100" fill="none" xmlns="http://www.w3.org/2000/svg"><path d="M99.57 33.289 83.663 11.213a2.276 2.276 0 0 0-1.847-.946H18.184c-.732 0-1.419.352-1.847.946L.43 33.289a2.277 2.277 0 0 0 .16 2.856l47.767 52.838a2.277 2.277 0 0 0 3.378 0L99.45 36.097a2.27 2.27 0 0 0 .3-.44c.389-.76.32-1.675-.18-2.368Zm-6.293-.946H70.354l11.462-15.905 11.461 15.905Zm-30.43 4.553L50.04 79.56 37.157 36.896h25.69ZM38.54 32.343 50 16.438l11.461 15.905H38.54ZM54.446 14.82H77.37L65.908 30.726 54.446 14.82ZM34.092 30.725 22.631 14.82h22.923L34.092 30.725Zm-1.69 6.17L44.937 78.41 7.404 36.896h24.998Zm35.2 0h25.086L55.13 78.439l12.471-41.542ZM18.183 16.439l11.462 15.905H6.723l11.461-15.905Z" fill="#114B63"/></svg>