<?xml version="1.0" standalone="no"?>
<!DOCTYPE svg PUBLIC "-//W3C//DTD SVG 20010904//EN"
 "http://www.w3.org/TR/2001/REC-SVG-20010904/DTD/svg10.dtd">
<svg version="1.0" xmlns="http://www.w3.org/2000/svg"
 width="93.000000pt" height="93.000000pt" viewBox="0 0 93.000000 93.000000"
 preserveAspectRatio="xMidYMid meet">
<metadata>
Created by potrace 1.14, written by Peter Selinger 2001-2017
</metadata>
<g transform="translate(0.000000,93.000000) scale(0.100000,-0.100000)"
fill="#000000" stroke="none">
<path d="M435 882 c-9 -20 -17 -70 -17 -95 1 -13 -4 -17 -14 -13 -10 4 -8 -4
8 -26 45 -63 49 -76 24 -82 -12 -3 -31 -3 -43 0 -11 3 -24 1 -27 -4 -8 -13 3
-42 17 -42 15 0 75 -48 87 -71 8 -14 8 -19 -2 -17 -6 2 -17 -11 -23 -28 -16
-48 -33 -63 -92 -80 -49 -14 -56 -14 -78 0 -14 9 -25 22 -25 29 0 8 -3 8 -9
-2 -5 -8 -4 -26 5 -46 7 -17 10 -42 7 -54 -4 -17 -1 -24 14 -27 16 -5 22 -17
26 -62 4 -42 3 -59 -7 -64 -8 -4 -14 -28 -15 -55 -3 -70 -4 -73 -10 -73 -15 0
-9 -48 6 -54 22 -9 41 10 26 25 -8 8 -9 19 -2 38 6 14 10 27 9 29 -5 8 13 62
20 62 18 0 80 63 80 80 0 11 5 22 12 26 7 4 8 3 4 -4 -4 -7 -2 -12 4 -12 18 0
42 -28 30 -35 -16 -10 -12 -61 5 -75 24 -20 56 -67 60 -90 5 -29 14 -40 30
-40 23 0 25 16 5 38 -11 12 -20 26 -20 33 0 6 -8 23 -19 37 -22 33 -36 72 -24
72 16 0 51 85 42 101 -6 11 -4 16 7 16 8 0 26 -24 40 -54 25 -51 26 -54 9 -79
-14 -22 -15 -28 -4 -35 41 -26 50 102 12 159 -9 15 -17 30 -16 34 2 3 -4 12
-12 18 -19 16 -19 30 0 30 8 0 15 6 15 13 0 8 9 22 19 31 15 14 24 15 40 6 29
-15 26 -34 -8 -63 -34 -28 -28 -58 7 -36 21 13 52 69 52 93 0 17 -59 68 -70
61 -9 -6 -52 49 -45 57 2 2 -9 19 -25 36 -16 18 -27 33 -24 33 2 1 8 2 13 3
20 3 24 17 6 29 -17 13 -17 14 1 22 10 5 33 9 49 9 17 1 31 6 32 11 1 6 -7 9
-17 7 -11 -2 -20 1 -20 5 0 10 37 43 49 43 14 0 45 40 37 47 -4 5 -12 0 -17
-10 -19 -32 -29 -17 -26 38 2 30 0 55 -5 55 -5 0 -6 4 -3 10 3 6 -1 7 -10 3
-9 -3 -13 -9 -8 -12 8 -5 9 -43 4 -85 -1 -4 -8 -5 -17 -2 -13 5 -14 3 -7 -6
14 -18 1 -48 -35 -79 -45 -41 -66 -44 -86 -14 -10 15 -15 32 -13 38 2 7 -3 18
-12 25 -9 8 -10 10 -3 7 11 -6 12 -3 3 13 -8 15 -8 23 0 28 6 4 8 20 5 39 -4
22 -2 35 6 37 8 3 9 6 1 11 -6 4 -14 -1 -18 -11z"/>
</g>
</svg>
